<svg xmlns="http://www.w3.org/2000/svg" viewBox="0 0 18 18"><defs><style>.cls-1{fill:none;}.cls-2{fill:#43ba6a;}</style></defs><g id="图层_2" data-name="图层 2"><g id="图层_1-2" data-name="图层 1"><g id="组_19678" data-name="组 19678"><rect id="矩形_5080" data-name="矩形 5080" class="cls-1" width="18" height="18"/><g id="组_19717" data-name="组 19717"><path id="路径_11156" data-name="路径 11156" class="cls-2" d="M11.7,8.13a.47.47,0,0,0,.47.45.45.45,0,0,0,.45-.45A2.76,2.76,0,0,0,9.87,5.38a.46.46,0,0,0,0,.92h0A1.83,1.83,0,0,1,11.7,8.13Z"/><path id="路径_11157" data-name="路径 11157" class="cls-2" d="M13.53,8.13a.46.46,0,0,0,.45.46.47.47,0,0,0,.47-.45h0A4.6,4.6,0,0,0,9.87,3.55.46.46,0,0,0,9.42,4a.45.45,0,0,0,.45.46,3.67,3.67,0,0,1,3.66,3.66Z"/><path id="路径_11158" data-name="路径 11158" class="cls-2" d="M15.09,12,15,11.89l-1.79-1.42a1.34,1.34,0,0,0-1.82.09l-.78.78A10.82,10.82,0,0,1,6.72,7.45l.73-.82a1.34,1.34,0,0,0,.1-1.83L6.13,3a1.38,1.38,0,0,0-1.92-.23s-.09,0-.09.09L2.88,4.12c-1.19,1.18.5,4.39,3.57,7.45s6.22,4.71,7.4,3.56l1.24-1.23a1.32,1.32,0,0,0,0-1.87Zm-.52,1.34-1.26,1.26c-.6.61-3.5-.93-6.25-3.64S2.81,5.29,3.42,4.69L4.73,3.38a.45.45,0,0,1,.64.08h0L6.83,5.29h0a.44.44,0,0,1,0,.61L5.75,7a.5.5,0,0,0-.09.56,11.89,11.89,0,0,0,4.81,4.8.49.49,0,0,0,.56-.09l1.07-1.07a.44.44,0,0,1,.61,0l1.82,1.49s0,0,.05.05h0a.46.46,0,0,1,0,.64h0Z"/></g></g></g></g></svg>